<svg width="99" height="188" viewBox="0 0 99 188" fill="none" xmlns="http://www.w3.org/2000/svg">
    <path
        d="M95.6815 72.5536C95.6815 93.1004 91.3734 112.763 83.4198 132.758C83.1988 133.421 82.8674 134.083 82.536 134.857C74.5824 153.857 63.2044 172.857 49.396 184.014C35.1458 172.526 23.5468 152.752 15.4827 133.2C15.3723 133.089 15.3722 132.979 15.2618 132.758C7.30818 112.763 3 93.1004 3 72.5536C3 66.257 3.44184 60.0708 4.21511 53.6637C6.86631 32.2332 21.4479 6.38398 39.6749 3.62231C39.8959 3.62231 40.1168 3.51187 40.3377 3.51187C46.082 2.84907 51.9368 2.84903 57.681 3.40137C57.902 3.40137 58.2333 3.40141 58.4543 3.51187C77.0127 5.83167 91.9257 32.0122 94.5769 53.6637C95.2397 60.0708 95.6815 66.257 95.6815 72.5536Z"
        fill="#F4A045" />
    <path
        d="M95.6815 72.5536C95.6815 93.1004 91.3734 112.763 83.4198 132.758C83.1988 133.421 82.8674 134.083 82.536 134.857C74.5824 153.857 63.2044 172.857 49.396 184.014C35.1458 172.526 23.5468 152.752 15.4827 133.2C15.3723 133.089 15.3722 132.979 15.2618 132.758C7.30818 112.763 3 93.1004 3 72.5536C3 66.257 3.44184 60.0708 4.21511 53.6637C6.86631 32.2332 21.4479 6.38398 39.6749 3.62231C39.8959 3.62231 40.1168 3.51187 40.3377 3.51187C46.082 2.84907 51.9368 2.84903 57.681 3.40137C57.902 3.40137 58.2333 3.40141 58.4543 3.51187C77.0127 5.83167 91.9257 32.0122 94.5769 53.6637C95.2397 60.0708 95.6815 66.257 95.6815 72.5536Z"
        stroke="#601B23" stroke-width="6" stroke-miterlimit="10" stroke-linecap="round"
        stroke-linejoin="round" />
    <path
        d="M44.3145 3.29097C33.9307 4.61657 25.6456 19.1982 24.0991 31.239C23.6572 34.774 23.4363 38.1984 23.4363 41.7334C23.4363 53.2219 25.8666 64.1581 30.2853 75.3153C34.7039 86.2515 41.3319 97.4086 49.2855 103.816C57.3496 97.4086 63.8671 86.2515 68.2858 75.3153C72.7045 64.1581 75.1348 53.2219 75.1348 41.7334C75.1348 38.1984 74.9139 34.774 74.472 31.239C72.9254 19.0877 64.6404 4.61657 54.2566 3.29097C51.053 2.95957 47.6285 2.95957 44.3145 3.29097Z"
        fill="#E36535" />
    <path
        d="M44.3145 3.29097C33.9307 4.61657 25.6456 19.1982 24.0991 31.239C23.6572 34.774 23.4363 38.1984 23.4363 41.7334C23.4363 53.2219 25.8666 64.1581 30.2853 75.3153C34.7039 86.2515 41.3319 97.4086 49.2855 103.816C57.3496 97.4086 63.8671 86.2515 68.2858 75.3153C72.7045 64.1581 75.1348 53.2219 75.1348 41.7334C75.1348 38.1984 74.9139 34.774 74.472 31.239C72.9254 19.0877 64.6404 4.61657 54.2566 3.29097C51.053 2.95957 47.6285 2.95957 44.3145 3.29097Z"
        stroke="#601B23" stroke-width="6" stroke-miterlimit="10" stroke-linecap="round"
        stroke-linejoin="round" />
</svg>
    