<svg
  width="405"
  height="428"
  viewBox="0 0 405 428"
  fill="none"
  xmlns="http://www.w3.org/2000/svg"
>
  <path
    d="M160.188 41.111C187.695 31.6109 217.852 31.6109 245.358 41.2215C232.875 26.0876 218.404 13.3839 202.718 3C187.032 13.3839 172.561 26.0875 160.188 41.111Z"
    fill="#601B23"
  />
  <path
    d="M160.188 41.111C187.695 31.6109 217.852 31.6109 245.358 41.2215C232.875 26.0876 218.404 13.3839 202.718 3C187.032 13.3839 172.561 26.0875 160.188 41.111Z"
    stroke="#601B23"
    strokeWidth="6"
    strokeMiterlimit="10"
    strokeLinecap="round"
    strokeLinejoin="round"
  />
  <path
    d="M69.3847 232.218L33.3726 246.248V177.869L143.95 91.5943V220.951L117.217 234.98C102.967 227.468 85.6233 225.922 69.3847 232.218Z"
    fill="#C11A4D"
  />
  <path
    d="M21.663 264.143C10.3954 247.794 3.87787 228.463 3.87787 207.805C3.87787 181.625 14.1513 157.653 31.2736 139.205C48.3959 157.653 58.7798 181.625 58.8903 207.805C58.8903 228.573 52.3728 247.794 41.2156 264.143H21.663Z"
    fill="#CF264D"
  />
  <path
    opacity="0.72"
    d="M33.3726 246.248L69.1638 232.329C69.6056 222.829 68.9429 213.108 67.1754 203.387C64.5242 188.805 59.5532 175.107 52.7042 162.735L33.3726 177.869V246.248Z"
    fill="#A5143A"
  />
  <path
    opacity="0.23"
    d="M38.0122 196.98L144.06 114.35V91.5943L33.3726 177.758V246.248L38.0122 244.48V196.98Z"
    fill="#F4A15D"
  />
  <path
    opacity="0.72"
    d="M99.984 229.125C106.06 230.12 111.804 232.108 117.217 234.98L143.95 220.951V91.5943L97.3328 127.938C95.013 141.967 93.9083 156.659 93.9083 171.793C94.0188 191.788 96.1177 211.119 99.984 229.125Z"
    fill="#A5143A"
  />
  <path
    d="M69.3847 232.218L33.3726 246.248V177.869L143.95 91.5943V220.951L117.217 234.98C102.967 227.468 85.6233 225.922 69.3847 232.218Z"
    stroke="#601B23"
    strokeWidth="6"
    strokeMiterlimit="10"
    strokeLinecap="round"
    strokeLinejoin="round"
  />
  <path
    d="M21.663 264.143C10.3954 247.794 3.87787 228.463 3.87787 207.805C3.87787 181.625 14.1513 157.653 31.2736 139.205C48.3959 157.653 58.7798 181.625 58.8903 207.805C58.8903 228.573 52.3728 247.794 41.2156 264.143H21.663Z"
    fill="#CF264D"
  />
  <path
    opacity="0.23"
    d="M29.6167 139.205C30.9423 140.642 32.2679 142.188 33.483 143.735C21.9945 161.409 15.3665 182.177 15.256 204.27C15.256 226.143 18.57 246.579 29.8376 264.254H19.6747C8.51754 247.905 2 228.573 2 207.916C2.11047 181.625 12.4943 157.653 29.6167 139.205Z"
    fill="#F4A15D"
  />
  <path
    opacity="0.32"
    d="M29.6167 139.205C30.0585 139.647 30.5004 140.2 30.9423 140.752C18.0177 159.863 10.6164 182.287 10.506 206.369C10.506 227.247 16.1398 246.911 25.9713 264.254H19.6747C8.51754 247.905 2 228.573 2 207.916C2.11047 181.625 12.4943 157.653 29.6167 139.205Z"
    fill="#F4A15D"
  />
  <path
    opacity="0.37"
    d="M58.8904 207.805C58.8904 181.625 48.5065 157.764 31.2737 139.205C29.9481 140.642 28.6225 142.188 27.4073 143.735C38.8959 161.409 45.5239 182.177 45.6344 204.27C45.6344 226.143 39.2273 246.579 27.9597 264.254H41.2157C52.3728 247.794 58.8904 228.463 58.8904 207.805Z"
    fill="#A5143A"
  />
  <path
    opacity="0.72"
    d="M58.8904 207.805C58.8904 181.625 48.5065 157.764 31.2737 139.205C30.8319 139.647 30.39 140.2 29.9481 140.752C42.8727 159.863 50.274 182.287 50.3845 206.369C50.3845 227.247 44.7507 246.911 34.9191 264.254H41.2157C52.3729 247.794 58.8904 228.463 58.8904 207.805Z"
    fill="#A5143A"
  />
  <path
    opacity="0.37"
    d="M31.2737 139.205C29.9481 140.642 28.6225 142.188 27.4073 143.735C38.8959 161.409 45.5239 182.177 45.6344 204.27C45.6344 226.143 39.2273 246.579 27.9597 264.254H41.2157C52.3728 247.905 58.8904 228.573 58.8904 207.916C58.7799 181.625 48.396 157.653 31.2737 139.205Z"
    fill="#A5143A"
  />
  <path
    opacity="0.72"
    d="M31.2737 139.205C30.8319 139.647 30.39 140.2 29.9481 140.752C42.8727 159.863 50.274 182.287 50.3845 206.369C50.3845 227.247 44.7507 246.911 34.9191 264.254H41.2157C52.3729 247.905 58.8904 228.573 58.8904 207.916C58.78 181.625 48.3961 157.653 31.2737 139.205Z"
    fill="#A5143A"
  />
  <path
    d="M43.8669 159.09C39.7796 151.909 34.9191 145.281 29.2853 139.095C23.6515 145.171 18.7909 151.909 14.7037 159.09H43.8669Z"
    fill="#601B23"
  />
  <path
    d="M21.663 264.143C10.3954 247.794 3.87787 228.463 3.87787 207.805C3.87787 181.625 14.1513 157.653 31.2736 139.205C48.3959 157.653 58.7798 181.625 58.8903 207.805C58.8903 228.573 52.3728 247.794 41.2156 264.143H21.663Z"
    stroke="#601B23"
    strokeWidth="6"
    strokeMiterlimit="10"
    strokeLinecap="round"
    strokeLinejoin="round"
  />
  <path
    d="M165.159 349.424C165.159 349.424 151.793 352.296 132.572 371.517C125.612 378.476 114.676 392.616 106.612 403.331C103.298 407.75 96.2281 405.541 96.1176 400.017L93.4664 282.37C92.9141 279.056 93.7978 275.632 95.8967 273.091L124.839 237.079L165.159 349.424Z"
    fill="#CF264D"
  />
  <path
    opacity="0.32"
    d="M95.8967 402.337C102.193 401.454 106.943 396.041 107.054 389.634L108.269 280.272C107.717 276.958 108.6 273.533 110.699 270.992L128.816 248.347L124.729 237.079L95.8967 272.981C93.7978 275.632 92.9141 278.946 93.4664 282.26L95.8967 402.337Z"
    fill="#F4A15D"
  />
  <path
    opacity="0.72"
    d="M165.159 349.424L124.839 237.079L108.821 257.073C117.438 290.214 131.025 323.906 149.363 357.488C159.084 350.749 165.159 349.424 165.159 349.424Z"
    fill="#A5143A"
  />
  <path
    d="M165.159 349.424C165.159 349.424 151.793 352.296 132.572 371.517C125.612 378.476 114.676 392.616 106.612 403.331C103.298 407.75 96.2281 405.541 96.1176 400.017L93.4664 282.37C92.9141 279.056 93.7978 275.632 95.8967 273.091L124.839 237.079L165.159 349.424Z"
    stroke="#601B23"
    strokeWidth="6"
    strokeMiterlimit="10"
    strokeLinecap="round"
    strokeLinejoin="round"
  />
  <path
    d="M11.1688 249.562H47.5124"
    stroke="#601B23"
    strokeWidth="4"
    strokeMiterlimit="10"
    strokeLinecap="round"
    strokeLinejoin="round"
  />
  <path
    d="M21.663 264.143C10.3954 247.794 3.87787 228.463 3.87787 207.805C3.87787 181.625 14.1513 157.653 31.2736 139.205C48.3959 157.653 58.7798 181.625 58.8903 207.805C58.8903 228.573 52.3728 247.794 41.2156 264.143H21.663Z"
    fill="#CF264D"
  />
  <path
    d="M21.663 264.143C10.3954 247.794 3.87787 228.463 3.87787 207.805C3.87787 181.625 14.1513 157.653 31.2736 139.205C48.3959 157.653 58.7798 181.625 58.8903 207.805C58.8903 228.573 52.3728 247.794 41.2156 264.143H21.663Z"
    fill="#CF264D"
  />
  <path
    opacity="0.23"
    d="M29.6167 139.205C30.9423 140.642 32.2679 142.188 33.483 143.735C21.9945 161.409 15.3665 182.177 15.256 204.27C15.256 226.143 18.57 246.579 29.8376 264.254H19.6747C8.51754 247.905 2 228.573 2 207.916C2.11047 181.625 12.4943 157.653 29.6167 139.205Z"
    fill="#F4A15D"
  />
  <path
    opacity="0.32"
    d="M29.6167 139.205C30.0585 139.647 30.5004 140.2 30.9423 140.752C18.0177 159.863 10.6164 182.287 10.506 206.369C10.506 227.247 16.1398 246.911 25.9713 264.254H19.6747C8.51754 247.905 2 228.573 2 207.916C2.11047 181.625 12.4943 157.653 29.6167 139.205Z"
    fill="#F4A15D"
  />
  <path
    opacity="0.37"
    d="M58.8904 207.805C58.8904 181.625 48.5065 157.764 31.2737 139.205C29.9481 140.642 28.6225 142.188 27.4073 143.735C38.8959 161.409 45.5239 182.177 45.6344 204.27C45.6344 226.143 39.2273 246.579 27.9597 264.254H41.2157C52.3728 247.794 58.8904 228.463 58.8904 207.805Z"
    fill="#A5143A"
  />
  <path
    opacity="0.72"
    d="M58.8904 207.805C58.8904 181.625 48.5065 157.764 31.2737 139.205C30.8319 139.647 30.39 140.2 29.9481 140.752C42.8727 159.863 50.274 182.287 50.3845 206.369C50.3845 227.247 44.7507 246.911 34.9191 264.254H41.2157C52.3729 247.794 58.8904 228.463 58.8904 207.805Z"
    fill="#A5143A"
  />
  <path
    opacity="0.37"
    d="M31.2737 139.205C29.9481 140.642 28.6225 142.188 27.4073 143.735C38.8959 161.409 45.5239 182.177 45.6344 204.27C45.6344 226.143 39.2273 246.579 27.9597 264.254H41.2157C52.3728 247.905 58.8904 228.573 58.8904 207.916C58.7799 181.625 48.396 157.653 31.2737 139.205Z"
    fill="#A5143A"
  />
  <path
    opacity="0.72"
    d="M31.2737 139.205C30.8319 139.647 30.39 140.2 29.9481 140.752C42.8727 159.863 50.274 182.287 50.3845 206.369C50.3845 227.247 44.7507 246.911 34.9191 264.254H41.2157C52.3729 247.905 58.8904 228.573 58.8904 207.916C58.78 181.625 48.3961 157.653 31.2737 139.205Z"
    fill="#A5143A"
  />
  <path
    d="M45.8554 159.09C41.7681 151.909 36.9076 145.281 31.2738 139.095C25.64 145.171 20.7794 151.909 16.6921 159.09H45.8554Z"
    fill="#601B23"
  />
  <path
    d="M21.663 264.143C10.3954 247.794 3.87787 228.463 3.87787 207.805C3.87787 181.625 14.1513 157.653 31.2736 139.205C48.3959 157.653 58.7798 181.625 58.8903 207.805C58.8903 228.573 52.3728 247.794 41.2156 264.143H21.663Z"
    stroke="#601B23"
    strokeWidth="6"
    strokeMiterlimit="10"
    strokeLinecap="round"
    strokeLinejoin="round"
  />
  <path
    d="M11.1688 249.562H47.5124"
    stroke="#601B23"
    strokeWidth="4"
    strokeMiterlimit="10"
    strokeLinecap="round"
    strokeLinejoin="round"
  />
  <path
    d="M329.534 232.218L365.546 246.248V177.869L254.969 91.5943V220.951L281.702 234.98C295.952 227.468 313.295 225.922 329.534 232.218Z"
    fill="#C11A4D"
  />
  <path
    opacity="0.72"
    d="M365.546 246.248L329.755 232.329C329.313 222.829 329.976 213.108 331.743 203.387C334.394 188.805 339.365 175.107 346.214 162.735L365.546 177.869V246.248Z"
    fill="#A5143A"
  />
  <path
    opacity="0.23"
    d="M361.017 196.98L254.969 114.35V91.5943L365.546 177.758V246.248L361.017 244.48V196.98Z"
    fill="#F4A15D"
  />
  <path
    opacity="0.72"
    d="M298.935 229.125C292.859 230.12 287.115 232.108 281.702 234.98L254.969 220.951V91.5943L301.586 127.938C303.906 141.967 305.01 156.659 305.01 171.793C305.01 191.788 302.911 211.119 298.935 229.125Z"
    fill="#A5143A"
  />
  <path
    d="M329.534 232.218L365.546 246.248V177.869L254.969 91.5943V220.951L281.702 234.98C295.952 227.468 313.295 225.922 329.534 232.218Z"
    stroke="#601B23"
    strokeWidth="6"
    strokeMiterlimit="10"
    strokeLinecap="round"
    strokeLinejoin="round"
  />
  <path
    d="M233.87 349.424C233.87 349.424 247.236 352.296 266.457 371.517C273.417 378.476 284.353 392.616 292.417 403.331C295.731 407.75 302.801 405.541 302.911 400.017L305.563 282.37C306.115 279.056 305.231 275.632 303.132 273.091L274.19 237.079L233.87 349.424Z"
    fill="#CF264D"
  />
  <path
    opacity="0.72"
    d="M303.022 402.337C296.725 401.454 291.975 396.041 291.865 389.634L290.65 280.272C291.202 276.958 290.318 273.533 288.219 270.992L270.103 248.347L274.19 237.079L303.132 273.091C305.231 275.742 306.115 279.056 305.563 282.37L303.022 402.337Z"
    fill="#A5143A"
  />
  <path
    opacity="0.72"
    d="M233.87 349.424L274.19 237.079L290.208 257.073C281.591 290.214 268.004 323.906 249.666 357.488C239.945 350.749 233.87 349.424 233.87 349.424Z"
    fill="#A5143A"
  />
  <path
    d="M233.87 349.424C233.87 349.424 247.236 352.296 266.457 371.517C273.417 378.476 284.353 392.616 292.417 403.331C295.731 407.75 302.801 405.541 302.911 400.017L305.563 282.37C306.115 279.056 305.231 275.632 303.132 273.091L274.19 237.079L233.87 349.424Z"
    stroke="#601B23"
    strokeWidth="6"
    strokeMiterlimit="10"
    strokeLinecap="round"
    strokeLinejoin="round"
  />
  <path
    d="M233.317 412.611C234.533 399.465 232.765 387.093 210.672 354.505C207.026 349.313 198.299 349.313 194.654 354.505C172.561 387.203 170.793 399.575 172.008 412.611C172.229 414.268 175.212 416.146 177.09 415.483C189.793 408.965 215.532 408.965 228.236 415.483C230.114 416.146 233.096 414.378 233.317 412.611Z"
    fill="#4E8280"
  />
  <g opacity="0.32">
    <g opacity="0.32">
      <g opacity="0.32">
        <path
          opacity="0.32"
          d="M183.165 412.611C181.95 399.465 183.718 387.093 205.811 354.505C206.474 353.511 207.358 352.738 208.241 352.185C204.044 349.424 197.637 350.197 194.654 354.505C172.561 387.203 170.793 399.576 172.008 412.611C172.229 414.268 175.212 416.146 177.09 415.483C178.968 414.599 181.067 413.715 183.276 413.053C183.276 412.942 183.165 412.832 183.165 412.611Z"
          fill="#F4A15D"
        />
      </g>
      <g opacity="0.32">
        <path
          opacity="0.32"
          d="M208.241 410.843C215.864 411.396 223.044 412.942 228.236 415.483C229.893 416.146 232.544 414.599 233.207 413.053C225.916 410.954 216.858 410.18 208.241 410.843Z"
          fill="#F4A15D"
        />
      </g>
    </g>
  </g>
  <path
    d="M198.52 354.505C198.189 354.063 197.858 353.732 197.526 353.4C201.613 349.313 209.236 349.755 212.55 354.505C234.643 387.203 236.41 399.576 235.195 412.611C234.974 414.268 231.992 416.146 230.114 415.483C227.573 414.157 224.48 413.163 221.166 412.39C222.381 399.355 220.503 386.982 198.52 354.505Z"
    fill="#37605D"
  />
  <path
    d="M233.317 412.611C234.533 399.465 232.765 387.093 210.672 354.505C207.026 349.313 198.299 349.313 194.654 354.505C172.561 387.203 170.793 399.575 172.008 412.611C172.229 414.268 175.212 416.146 177.09 415.483C189.793 408.965 215.532 408.965 228.236 415.483C230.114 416.146 233.096 414.378 233.317 412.611Z"
    stroke="#601B23"
    strokeWidth="6"
    strokeMiterlimit="10"
    strokeLinecap="round"
    strokeLinejoin="round"
  />
  <path
    d="M227.573 372.953C279.603 287.783 298.493 204.16 286.783 134.455C276.62 73.9196 243.922 30.2853 202.608 3C161.293 30.2853 128.595 73.9196 118.432 134.455C106.722 204.16 125.723 287.783 177.642 372.953H227.573Z"
    fill="#CF264D"
  />
  <path
    opacity="0.23"
    d="M157.979 135.671C164.607 80.8791 181.84 37.3552 205.038 4.76747C204.265 4.21514 203.381 3.66281 202.608 3.11047C161.293 30.3958 128.595 74.0301 118.432 134.566C106.722 204.27 125.723 287.894 177.642 373.064H188.136C159.305 287.894 149.584 206.038 157.979 135.671Z"
    fill="#F4A15D"
  />
  <path
    opacity="0.37"
    d="M286.783 134.455C276.731 74.3615 244.474 30.9481 203.491 3.66281C211.114 15.9246 220.835 33.5993 229.009 56.024C243.922 96.7863 245.579 130.368 246.463 151.467C250.44 246.358 214.096 351.302 206.474 373.064H227.573C279.603 287.783 298.493 204.16 286.783 134.455Z"
    fill="#A5143A"
  />
  <path
    opacity="0.72"
    d="M286.783 134.455C276.62 73.9196 243.922 30.2853 202.608 3C201.503 3.6628 200.509 4.43609 199.404 5.09889C215.09 17.3607 227.021 30.5062 236.079 43.0994C317.383 156.217 239.393 325.563 228.678 347.988C228.236 332.743 226.247 313.853 220.614 292.754C216.968 279.277 212.55 267.457 208.131 257.405C206.474 294.853 204.817 332.301 203.16 369.75H216.858C216.526 370.854 216.195 371.848 215.753 372.953H227.352C279.603 287.783 298.493 204.16 286.783 134.455Z"
    fill="#A5143A"
  />
  <path
    opacity="0.32"
    d="M132.351 153.677C133.897 136.002 139.642 78.5593 175.101 31.39C180.735 23.9887 189.131 13.9362 188.468 13.3839C187.474 12.5002 168.031 30.0644 154.223 48.7333C136.88 72.0417 124.176 100.653 118.542 134.455C106.833 204.16 125.833 287.783 177.753 372.953H182.282C168.032 344.563 158.642 318.935 152.235 298.719C148.037 285.132 140.636 261.05 135.996 228.794C133.014 207.143 129.7 183.945 132.351 153.677Z"
    fill="#F4A15D"
  />
  <path
    opacity="0.72"
    d="M208.573 176.433C225.167 176.433 238.62 162.98 238.62 146.386C238.62 129.792 225.167 116.339 208.573 116.339C191.978 116.339 178.526 129.792 178.526 146.386C178.526 162.98 191.978 176.433 208.573 176.433Z"
    fill="#A5143A"
    stroke="#A5143A"
    strokeWidth="6"
    strokeMiterlimit="10"
    strokeLinecap="round"
    strokeLinejoin="round"
  />
  <path
    d="M227.573 372.953C279.603 287.783 298.493 204.16 286.783 134.455C276.62 73.9196 243.922 30.2853 202.608 3C161.293 30.2853 128.595 73.9196 118.432 134.455C106.722 204.16 125.723 287.783 177.642 372.953H227.573Z"
    stroke="#601B23"
    strokeWidth="6"
    strokeMiterlimit="10"
    strokeLinecap="round"
    strokeLinejoin="round"
  />
  <path
    d="M232.282 146.561C234.94 130.18 223.817 114.747 207.436 112.088C191.056 109.429 175.622 120.553 172.964 136.934C170.305 153.314 181.429 168.749 197.809 171.407C214.19 174.065 229.623 162.941 232.282 146.561Z"
    fill="#ABCFD8"
  />
  <path
    opacity="0.93"
    d="M198.52 158.206C208.525 158.206 216.637 150.094 216.637 140.089C216.637 130.084 208.525 121.973 198.52 121.973C188.515 121.973 180.404 130.084 180.404 140.089C180.404 150.094 188.515 158.206 198.52 158.206Z"
    fill="#E2F0F2"
  />
  <path
    d="M232.282 146.561C234.94 130.18 223.817 114.747 207.436 112.088C191.056 109.429 175.622 120.553 172.964 136.934C170.305 153.314 181.429 168.749 197.809 171.407C214.19 174.065 229.623 162.941 232.282 146.561Z"
    stroke="#601B23"
    strokeWidth="6"
    strokeMiterlimit="10"
    strokeLinecap="round"
    strokeLinejoin="round"
  />
  <path
    d="M202.608 424.651C203.823 424.651 204.817 423.326 204.927 421.558L213.212 286.347C214.096 272.428 209.677 259.504 203.16 256.411C202.718 256.19 202.276 256.19 201.945 256.411C195.427 259.393 191.009 272.318 191.892 286.347L200.177 421.558C200.398 423.326 201.503 424.651 202.608 424.651Z"
    fill="#BC1D4E"
  />
  <path
    opacity="0.74"
    d="M202.608 424.651C203.823 424.651 204.817 423.326 204.927 421.558L213.212 286.347C214.096 272.428 209.677 259.504 203.16 256.411C202.718 256.19 202.276 256.19 201.945 256.411C195.427 259.393 191.009 272.318 191.892 286.347L200.177 421.558C200.398 423.326 201.503 424.651 202.608 424.651Z"
    fill="#A5143A"
  />
  <g opacity="0.53">
    <g opacity="0.53">
      <g opacity="0.53">
        <path
          opacity="0.53"
          d="M202.055 256.411C195.538 259.393 191.119 272.318 192.003 286.347L200.288 421.558C200.398 422.995 201.061 424.21 201.945 424.541V256.411H202.055Z"
          fill="#F4A15D"
        />
      </g>
      <g opacity="0.53">
        <path
          opacity="0.53"
          d="M202.056 256.411H203.272C202.83 256.19 202.388 256.19 202.056 256.411Z"
          fill="#F4A15D"
        />
      </g>
    </g>
  </g>
  <path
    d="M202.608 424.651C203.823 424.651 204.817 423.326 204.927 421.558L213.212 286.347C214.096 272.428 209.677 259.504 203.16 256.411C202.718 256.19 202.276 256.19 201.945 256.411C195.427 259.393 191.009 272.318 191.892 286.347L200.177 421.558C200.398 423.326 201.503 424.651 202.608 424.651Z"
    stroke="#601B23"
    strokeWidth="6"
    strokeMiterlimit="10"
    strokeLinecap="round"
    strokeLinejoin="round"
  />
  <path
    d="M364.773 264.143C353.505 247.794 346.988 228.463 346.988 207.805C346.988 181.625 357.261 157.653 374.383 139.205C391.506 157.653 401.89 181.625 402 207.805C402 228.573 395.482 247.794 384.325 264.143H364.773Z"
    fill="#CF264D"
  />
  <path
    d="M364.773 264.143C353.505 247.794 346.988 228.463 346.988 207.805C346.988 181.625 357.261 157.653 374.383 139.205C391.506 157.653 401.89 181.625 402 207.805C402 228.573 395.482 247.794 384.325 264.143H364.773Z"
    fill="#CF264D"
  />
  <path
    opacity="0.23"
    d="M372.837 139.205C374.162 140.642 375.488 142.188 376.703 143.735C365.215 161.409 358.587 182.177 358.476 204.27C358.476 226.143 361.79 246.579 373.058 264.254H362.895C351.738 247.905 345.22 228.573 345.22 207.916C345.22 181.625 355.604 157.653 372.837 139.205Z"
    fill="#F4A15D"
  />
  <path
    opacity="0.32"
    d="M372.837 139.205C373.279 139.647 373.721 140.2 374.162 140.752C361.238 159.863 353.837 182.287 353.726 206.369C353.726 227.247 359.36 246.911 369.191 264.254H362.895C351.738 247.905 345.22 228.573 345.22 207.916C345.22 181.625 355.604 157.653 372.837 139.205Z"
    fill="#F4A15D"
  />
  <path
    opacity="0.37"
    d="M402 207.805C402 181.625 391.616 157.764 374.383 139.205C373.058 140.642 371.732 142.188 370.517 143.735C382.006 161.409 388.634 182.177 388.744 204.27C388.744 226.143 382.337 246.579 371.069 264.254H384.325C395.482 247.794 402 228.463 402 207.805Z"
    fill="#A5143A"
  />
  <path
    opacity="0.72"
    d="M402 207.805C402 181.625 391.616 157.764 374.383 139.205C373.941 139.647 373.5 140.2 373.058 140.752C385.982 159.863 393.384 182.287 393.494 206.369C393.494 227.247 387.86 246.911 378.029 264.254H384.325C395.482 247.794 402 228.463 402 207.805Z"
    fill="#A5143A"
  />
  <path
    opacity="0.37"
    d="M374.383 139.205C373.058 140.642 371.732 142.188 370.517 143.735C382.006 161.409 388.634 182.177 388.744 204.27C388.744 226.143 382.337 246.579 371.069 264.254H384.325C395.482 247.905 402 228.573 402 207.916C402 181.625 391.616 157.653 374.383 139.205Z"
    fill="#A5143A"
  />
  <path
    opacity="0.72"
    d="M374.383 139.205C373.941 139.647 373.5 140.2 373.058 140.752C385.982 159.863 393.384 182.287 393.494 206.369C393.494 227.247 387.86 246.911 378.029 264.254H384.325C395.482 247.905 402 228.573 402 207.916C402 181.625 391.616 157.653 374.383 139.205Z"
    fill="#A5143A"
  />
  <path
    d="M389.075 159.09C384.988 151.909 380.128 145.281 374.494 139.095C368.86 145.171 363.999 151.909 359.912 159.09H389.075Z"
    fill="#601B23"
  />
  <path
    d="M364.773 264.143C353.505 247.794 346.988 228.463 346.988 207.805C346.988 181.625 357.261 157.653 374.383 139.205C391.506 157.653 401.89 181.625 402 207.805C402 228.573 395.482 247.794 384.325 264.143H364.773Z"
    stroke="#601B23"
    strokeWidth="6"
    strokeMiterlimit="10"
    strokeLinecap="round"
    strokeLinejoin="round"
  />
  <path
    d="M356.377 249.562H392.721"
    stroke="#601B23"
    strokeWidth="4"
    strokeMiterlimit="10"
    strokeLinecap="round"
    strokeLinejoin="round"
  />
</svg>